<svg width="20" height="20" viewBox="0 0 20 20" fill="none" xmlns="http://www.w3.org/2000/svg">
<g clip-path="url(#clip0_298_2889)">
<path d="M8.58626 8.58626C8.38976 8.76936 8.23216 8.99016 8.12285 9.23549C8.01354 9.48083 7.95476 9.74566 7.95002 10.0142C7.94528 10.2827 7.99468 10.5495 8.09527 10.7985C8.19586 11.0476 8.34558 11.2738 8.53549 11.4637C8.72541 11.6536 8.95163 11.8033 9.20067 11.9039C9.4497 12.0045 9.71645 12.0539 9.98499 12.0492C10.2535 12.0444 10.5184 11.9857 10.7637 11.8763C11.009 11.767 11.2298 11.6094 11.4129 11.4129M9.15299 5.38634C9.43387 5.35135 9.71662 5.33354 9.99966 5.33301C14.6663 5.33301 16.6663 9.99967 16.6663 9.99967C16.3683 10.6378 15.9945 11.2376 15.553 11.7863M6.40634 6.40641C5.08051 7.3095 4.01959 8.54992 3.33301 9.99975C3.33301 9.99975 5.33301 14.6664 9.99967 14.6664C11.2769 14.6698 12.5269 14.2965 13.593 13.5931M3.33301 3.33301L16.6663 16.6663" stroke="#727272" stroke-width="1.25" stroke-linecap="round" stroke-linejoin="round"/>
</g>
<defs>
<clipPath id="clip0_298_2889">
<rect width="16" height="16" fill="white" transform="translate(2 2)"/>
</clipPath>
</defs>
</svg>
