<svg width="16" height="16" viewBox="0 0 16 16" fill="none" xmlns="http://www.w3.org/2000/svg">
<path d="M5.99967 8.66699C6.36786 8.66699 6.66634 8.36852 6.66634 8.00033C6.66634 7.63214 6.36786 7.33366 5.99967 7.33366C5.63148 7.33366 5.33301 7.63214 5.33301 8.00033C5.33301 8.36852 5.63148 8.66699 5.99967 8.66699Z" stroke="#727272" stroke-width="1.33333" stroke-linecap="round" stroke-linejoin="round"/>
<path d="M5.99967 4.00033C6.36786 4.00033 6.66634 3.70185 6.66634 3.33366C6.66634 2.96547 6.36786 2.66699 5.99967 2.66699C5.63148 2.66699 5.33301 2.96547 5.33301 3.33366C5.33301 3.70185 5.63148 4.00033 5.99967 4.00033Z" stroke="#727272" stroke-width="1.33333" stroke-linecap="round" stroke-linejoin="round"/>
<path d="M5.99967 13.3337C6.36786 13.3337 6.66634 13.0352 6.66634 12.667C6.66634 12.2988 6.36786 12.0003 5.99967 12.0003C5.63148 12.0003 5.33301 12.2988 5.33301 12.667C5.33301 13.0352 5.63148 13.3337 5.99967 13.3337Z" stroke="#727272" stroke-width="1.33333" stroke-linecap="round" stroke-linejoin="round"/>
<path d="M9.99967 8.66699C10.3679 8.66699 10.6663 8.36852 10.6663 8.00033C10.6663 7.63214 10.3679 7.33366 9.99967 7.33366C9.63148 7.33366 9.33301 7.63214 9.33301 8.00033C9.33301 8.36852 9.63148 8.66699 9.99967 8.66699Z" stroke="#727272" stroke-width="1.33333" stroke-linecap="round" stroke-linejoin="round"/>
<path d="M9.99967 4.00033C10.3679 4.00033 10.6663 3.70185 10.6663 3.33366C10.6663 2.96547 10.3679 2.66699 9.99967 2.66699C9.63148 2.66699 9.33301 2.96547 9.33301 3.33366C9.33301 3.70185 9.63148 4.00033 9.99967 4.00033Z" stroke="#727272" stroke-width="1.33333" stroke-linecap="round" stroke-linejoin="round"/>
<path d="M9.99967 13.3337C10.3679 13.3337 10.6663 13.0352 10.6663 12.667C10.6663 12.2988 10.3679 12.0003 9.99967 12.0003C9.63148 12.0003 9.33301 12.2988 9.33301 12.667C9.33301 13.0352 9.63148 13.3337 9.99967 13.3337Z" stroke="#727272" stroke-width="1.33333" stroke-linecap="round" stroke-linejoin="round"/>
</svg>
