<svg width="16" height="17" viewBox="0 0 16 17" fill="none" xmlns="http://www.w3.org/2000/svg">
<path d="M2.66699 8.49967C2.66699 8.67649 2.73723 8.84605 2.86225 8.97108C2.98728 9.0961 3.15685 9.16634 3.33366 9.16634C3.51047 9.16634 3.68004 9.0961 3.80506 8.97108C3.93009 8.84605 4.00033 8.67649 4.00033 8.49967C4.00033 8.32286 3.93009 8.15329 3.80506 8.02827C3.68004 7.90325 3.51047 7.83301 3.33366 7.83301C3.15685 7.83301 2.98728 7.90325 2.86225 8.02827C2.73723 8.15329 2.66699 8.32286 2.66699 8.49967Z" stroke="#727272" stroke-width="1.33333" stroke-linecap="round" stroke-linejoin="round"/>
<path d="M7.33301 8.49967C7.33301 8.67649 7.40325 8.84605 7.52827 8.97108C7.65329 9.0961 7.82286 9.16634 7.99967 9.16634C8.17649 9.16634 8.34605 9.0961 8.47108 8.97108C8.5961 8.84605 8.66634 8.67649 8.66634 8.49967C8.66634 8.32286 8.5961 8.15329 8.47108 8.02827C8.34605 7.90325 8.17649 7.83301 7.99967 7.83301C7.82286 7.83301 7.65329 7.90325 7.52827 8.02827C7.40325 8.15329 7.33301 8.32286 7.33301 8.49967Z" stroke="#727272" stroke-width="1.33333" stroke-linecap="round" stroke-linejoin="round"/>
<path d="M12 8.49967C12 8.67649 12.0702 8.84605 12.1953 8.97108C12.3203 9.0961 12.4899 9.16634 12.6667 9.16634C12.8435 9.16634 13.013 9.0961 13.1381 8.97108C13.2631 8.84605 13.3333 8.67649 13.3333 8.49967C13.3333 8.32286 13.2631 8.15329 13.1381 8.02827C13.013 7.90325 12.8435 7.83301 12.6667 7.83301C12.4899 7.83301 12.3203 7.90325 12.1953 8.02827C12.0702 8.15329 12 8.32286 12 8.49967Z" stroke="#727272" stroke-width="1.33333" stroke-linecap="round" stroke-linejoin="round"/>
</svg>
