<svg width="16" height="16" viewBox="0 0 16 16" fill="none" xmlns="http://www.w3.org/2000/svg">
<path d="M13.3337 4.66699H7.33366M9.33366 11.3337H3.33366M9.33366 11.3337C9.33366 12.4382 10.2291 13.3337 11.3337 13.3337C12.4382 13.3337 13.3337 12.4382 13.3337 11.3337C13.3337 10.2291 12.4382 9.33366 11.3337 9.33366C10.2291 9.33366 9.33366 10.2291 9.33366 11.3337ZM6.66699 4.66699C6.66699 5.77156 5.77156 6.66699 4.66699 6.66699C3.56242 6.66699 2.66699 5.77156 2.66699 4.66699C2.66699 3.56242 3.56242 2.66699 4.66699 2.66699C5.77156 2.66699 6.66699 3.56242 6.66699 4.66699Z" stroke="#727272" stroke-width="1.5" stroke-linecap="round" stroke-linejoin="round"/>
</svg>
