<svg width="16" height="16" viewBox="0 0 16 16" fill="none" xmlns="http://www.w3.org/2000/svg">
<path d="M14.0001 14L11.1335 11.1333M12.6667 7.33333C12.6667 10.2789 10.2789 12.6667 7.33333 12.6667C4.38781 12.6667 2 10.2789 2 7.33333C2 4.38781 4.38781 2 7.33333 2C10.2789 2 12.6667 4.38781 12.6667 7.33333Z" stroke="#737373" stroke-width="1.5" stroke-linecap="round" stroke-linejoin="round"/>
<path d="M7.58309 3.91699L7.58909 3.91733L7.59442 3.91766L7.62209 3.91933L7.62576 3.91999H7.62942L7.64209 3.92299L7.65942 3.92566L7.66476 3.92766L7.66842 3.92799L7.67809 3.93166L7.69542 3.93633L7.70176 3.93933L7.70676 3.94066L7.71609 3.94533L7.72942 3.95099L7.73642 3.95499L7.74376 3.95833L7.75142 3.96333L7.76176 3.96899L7.77309 3.97699L7.77909 3.98066L7.78342 3.98466L7.79142 3.99033L7.80409 4.00166L7.81142 4.00733L7.81409 4.01066L7.81876 4.01466L7.83076 4.02833L7.83942 4.03733L7.84142 4.04033C7.88142 4.08933 7.90676 4.14766 7.91409 4.21133L7.91442 4.21533L7.91509 4.22899L7.91642 4.25033V6.25033H9.58309C9.64151 6.25031 9.69891 6.26565 9.74954 6.29481C9.80016 6.32397 9.84224 6.36592 9.87154 6.41646C9.90084 6.467 9.91635 6.52435 9.91651 6.58277C9.91666 6.64119 9.90146 6.69863 9.87242 6.74933L9.85242 6.77966L7.18576 10.4463C6.99642 10.7073 6.58309 10.573 6.58309 10.2503V8.25033H4.91642C4.858 8.25034 4.8006 8.235 4.74998 8.20584C4.69935 8.17669 4.65728 8.13473 4.62798 8.08419C4.59867 8.03365 4.58316 7.9763 4.58301 7.91788C4.58285 7.85946 4.59806 7.80202 4.62709 7.75133L4.64709 7.72099L7.31376 4.05433L7.31709 4.04999L7.32309 4.04199L7.33409 4.02933L7.34009 4.02199L7.34309 4.01933L7.34742 4.01466L7.36076 4.00266L7.37009 3.99399L7.37276 3.99199C7.41183 3.96002 7.45764 3.93734 7.50676 3.92566L7.51042 3.92533L7.51942 3.92366L7.54409 3.91933L7.54776 3.91899L7.56142 3.91833L7.58309 3.91699Z" fill="#727272"/>
</svg>
